<svg width="433" height="120" viewBox="0 0 433 120" fill="none" xmlns="http://www.w3.org/2000/svg">
<g clip-path="url(#clip0_2004_3562)">
<path fill-rule="evenodd" clip-rule="evenodd" d="M120.04 60C120.04 93.1371 93.1154 120 59.9019 120C28.4987 120 2.7159 95.985 0 65.3571H79.2315V53.5714H0.105035C3.32038 23.4568 28.8652 0 59.9019 0C93.1154 0 120.04 26.8629 120.04 60ZM348.311 36.1671C347.784 31.5921 345.645 28.0393 341.896 25.5118C338.147 22.9832 333.549 21.7189 328.103 21.7189C324.119 21.7189 320.633 22.3811 317.646 23.7054C314.688 25.0296 312.375 26.8511 310.705 29.1686C309.066 31.4861 308.246 34.1196 308.246 37.0693C308.246 39.5379 308.816 41.6604 309.958 43.4357C311.136 45.1874 312.661 46.6783 314.439 47.8157C316.243 48.9532 318.156 49.9063 320.15 50.6604C321.955 51.3229 323.788 51.9102 325.642 52.4207L334.78 54.9493C337.123 55.5814 339.729 56.4546 342.599 57.5679C345.499 58.6821 348.267 60.2014 350.903 62.1279C353.568 64.0243 355.764 66.4629 357.493 69.4425C359.221 72.4221 360.085 76.08 360.085 80.4139C360.085 85.4111 358.81 89.9261 356.263 93.9589C353.744 97.9929 350.054 101.199 345.192 103.576C340.359 105.955 334.487 107.143 327.575 107.143C321.132 107.143 315.552 106.075 310.837 103.937C306.151 101.8 302.461 98.82 299.766 94.9971C297.101 91.1743 295.593 86.7354 295.242 81.6782H306.488C306.781 85.17 307.923 88.0596 309.914 90.3471C311.936 92.6046 314.483 94.29 317.558 95.4043C320.663 96.4864 324.002 97.0296 327.575 97.0296C331.734 97.0296 335.468 96.3375 338.778 94.9521C342.087 93.5379 344.709 91.5814 346.641 89.0829C348.575 86.5543 349.54 83.6046 349.54 80.2329C349.54 77.1632 348.706 74.6646 347.037 72.7382C345.368 70.8118 343.171 69.2464 340.447 68.0432C337.723 66.8389 334.78 65.7857 331.617 64.8825L320.546 61.6318C313.517 59.5543 307.952 56.5896 303.851 52.7368C299.752 48.8839 297.701 43.8418 297.701 37.6114C297.701 32.4343 299.064 27.9193 301.787 24.0664C304.541 20.1836 308.231 17.1739 312.858 15.0364C317.514 12.8689 322.714 11.7857 328.454 11.7857C334.252 11.7857 339.408 12.8539 343.918 14.9914C348.428 17.0979 352.001 19.9875 354.637 23.6593C357.302 27.3321 358.708 31.5021 358.854 36.1671H348.311ZM135.045 13.05V105.517H167.554C174.642 105.517 180.397 104.434 184.819 102.267C189.241 100.099 192.478 97.1646 194.528 93.4618C196.578 89.76 197.603 85.5911 197.603 80.9561C197.603 76.08 196.666 71.9561 194.792 68.5843C192.918 65.2136 190.589 62.625 187.806 60.8186C185.024 59.0132 182.257 58.02 179.503 57.8389V56.9357C182.058 56.224 184.478 55.0952 186.665 53.595C188.89 52.0896 190.676 50.0432 192.024 47.4546C193.401 44.8661 194.089 41.5854 194.089 37.6114C194.089 33.0964 193.093 28.9875 191.101 25.2857C189.11 21.5529 186.079 18.5893 182.008 16.3907C177.936 14.1632 172.767 13.05 166.499 13.05H135.045ZM167.554 95.5843H145.939V63.4371H168.081C172.006 63.4371 175.404 64.2504 178.273 65.8757C181.143 67.4711 183.355 69.6075 184.907 72.2871C186.459 74.9357 187.235 77.8254 187.235 80.955C187.235 85.0189 185.727 88.4807 182.71 91.3404C179.723 94.1689 174.67 95.5843 167.554 95.5843ZM166.149 53.685H145.939V22.9832H166.499C172.474 22.9832 176.839 24.4125 179.591 27.2721C182.344 30.1018 183.721 33.5475 183.721 37.6114C183.721 40.8621 182.93 43.6918 181.349 46.1004C179.796 48.5079 177.688 50.3743 175.022 51.6986C172.387 53.0229 169.428 53.685 166.149 53.685ZM207.774 105.517H219.196L228.241 79.3307H264.625L273.671 105.516H285.093L252.056 13.05H240.81L207.774 105.517ZM261.194 69.3975L246.784 27.6782H246.082L231.672 69.3975H261.194ZM377.997 13.05V105.517H433V95.5854H388.893V64.1604H429.486V54.2271H388.893V22.9821H432.297V13.05H377.997Z" fill="white"/>
</g>
<defs>
<clipPath id="clip0_2004_3562">
<rect width="433" height="120" fill="white"/>
</clipPath>
</defs>
</svg>
