<svg width="44" height="48" viewBox="0 0 44 48" fill="none" xmlns="http://www.w3.org/2000/svg">
<g clip-path="url(#clip0_2012_3631)">
<path d="M15.529 32.4385H6.30606V41.6877H15.529V32.4385ZM17.8348 30.1261V44H4.00032V30.1261H17.8348ZM8.61181 34.7508H13.2233V39.3754H8.61181V34.7508ZM20.1405 25.5015H22.4463V27.8138H20.1405V25.5015ZM22.4463 27.8138H24.752V30.1261H22.4463V27.8138ZM20.1405 30.1261H22.4463V32.4385H20.1405V30.1261ZM22.4463 32.4385H24.752V34.7508H22.4463V32.4385ZM20.1405 34.7508H22.4463V37.0631H20.1405V34.7508ZM22.4463 37.0631H24.752V39.3754H22.4463V37.0631ZM20.1405 39.3754H22.4463V41.6877H20.1405V39.3754ZM22.4463 41.6877H24.752V44H22.4463V41.6877ZM6.30606 25.5015H8.61181V27.8138H6.30606V25.5015ZM8.61181 23.1892H10.9176V25.5015H8.61181V23.1892ZM4.00032 23.1892H6.30606V25.5015H4.00032V23.1892ZM13.2233 23.1892H15.529V25.5015H13.2233V23.1892ZM15.529 25.5015H17.8348V27.8138H15.529V25.5015ZM17.8348 23.1892H20.1405V25.5015H17.8348V23.1892ZM24.752 25.5015H27.0578V27.8138H24.752V25.5015ZM27.0578 23.1892H29.3635V25.5015H27.0578V23.1892ZM29.3635 25.5015H31.6692V27.8138H29.3635V25.5015ZM24.752 30.1261H27.0578V32.4385H24.752V30.1261ZM27.0578 27.8138H29.3635V30.1261H27.0578V27.8138ZM29.3635 30.1261H31.6692V32.4385H29.3635V30.1261ZM33.975 30.1261H36.2807V32.4385H33.975V30.1261ZM36.2807 27.8138H38.3946L38.5865 30.1261H36.2807V27.8138ZM24.752 34.7508H27.0578V37.0631H24.752V34.7508ZM27.0578 32.4385H29.3635V34.7508H27.0578V32.4385ZM31.6692 32.4385H33.975V34.7508H31.6692V32.4385ZM33.975 34.7508H36.2807V37.0631H33.975V34.7508ZM36.2807 32.4385H38.5865V34.7508H36.2807V32.4385ZM27.0578 37.0631H29.3635V39.3754H27.0578V37.0631ZM29.3635 39.3754H31.6692V41.6877H29.3635V39.3754ZM31.6692 37.0631H33.975V39.3754H31.6692V37.0631ZM33.975 39.3754H36.2807V41.6877H33.975V39.3754ZM27.0578 41.6877H29.3635V44H27.0578V41.6877ZM31.6692 41.6877H33.975V43.8166L31.6692 44V41.6877Z" fill="url(#paint0_linear_2012_3631)"/>
<path d="M13.2233 25.5015H10.9176V27.8138H13.2233V25.5015Z" fill="url(#paint1_linear_2012_3631)"/>
<path d="M6.30606 27.8138H4L4.00032 30.1261L6.30574 30.1261L6.30606 27.8138Z" fill="url(#paint2_linear_2012_3631)"/>
<path d="M10.9176 27.8138H8.61181L8.61213 30.1261L10.9176 30.1261V27.8138Z" fill="url(#paint3_linear_2012_3631)"/>
<path d="M20.1405 27.8138H17.8348V30.1261H20.1405V27.8138Z" fill="url(#paint4_linear_2012_3631)"/>
</g>
<path d="M27.5 1.25C31.62 1.25 34.894 2.30203 37.2021 4.5166L37.625 4.93555C39.6716 7.06754 40.6875 9.75274 40.6875 12.9375C40.6875 15.8298 39.8944 18.2628 38.2568 20.1738L38.2578 20.1748C37.1999 21.414 35.9626 22.3772 34.5527 23.0635C36.4855 23.8415 38.1593 25.0299 39.5635 26.6299H39.5625C41.5164 28.8083 42.5 31.3804 42.5 34.3125C42.5 37.9981 41.2629 41.0564 38.7656 43.4199C36.2732 45.7788 33.0792 46.9375 29.25 46.9375H1.25V1.25H27.5ZM4.5625 43.8125H28.8125C31.9045 43.8125 34.3559 42.9058 36.2363 41.1406L36.5869 40.7959C38.2837 39.0463 39.125 36.9401 39.125 34.4375C39.125 31.7383 38.1145 29.5045 36.0645 27.6865L36.0537 27.6758C34.0402 25.8173 31.5198 24.875 28.4375 24.875H4.5625V43.8125ZM4.5625 21.8125H26.875C29.9077 21.8125 32.4091 21.0371 34.4248 19.5254C36.3718 18.0651 37.375 15.9303 37.375 13C37.375 10.5714 36.5357 8.55792 34.8506 6.91113L34.8389 6.89941C33.2368 5.26007 30.7758 4.375 27.3125 4.375H4.5625V21.8125Z" fill="url(#paint5_linear_2012_3631)" stroke="url(#paint6_linear_2012_3631)" stroke-width="1.5"/>
<defs>
<linearGradient id="paint0_linear_2012_3631" x1="21.2932" y1="23.1892" x2="21.2932" y2="44" gradientUnits="userSpaceOnUse">
<stop stop-color="#9AFF8D"/>
<stop offset="1" stop-color="#A36DE5"/>
</linearGradient>
<linearGradient id="paint1_linear_2012_3631" x1="21.2932" y1="23.1892" x2="21.2932" y2="44" gradientUnits="userSpaceOnUse">
<stop stop-color="#9AFF8D"/>
<stop offset="1" stop-color="#A36DE5"/>
</linearGradient>
<linearGradient id="paint2_linear_2012_3631" x1="21.2932" y1="23.1892" x2="21.2932" y2="44" gradientUnits="userSpaceOnUse">
<stop stop-color="#9AFF8D"/>
<stop offset="1" stop-color="#A36DE5"/>
</linearGradient>
<linearGradient id="paint3_linear_2012_3631" x1="21.2932" y1="23.1892" x2="21.2932" y2="44" gradientUnits="userSpaceOnUse">
<stop stop-color="#9AFF8D"/>
<stop offset="1" stop-color="#A36DE5"/>
</linearGradient>
<linearGradient id="paint4_linear_2012_3631" x1="21.2932" y1="23.1892" x2="21.2932" y2="44" gradientUnits="userSpaceOnUse">
<stop stop-color="#9AFF8D"/>
<stop offset="1" stop-color="#A36DE5"/>
</linearGradient>
<linearGradient id="paint5_linear_2012_3631" x1="21.875" y1="2" x2="21.875" y2="46.1875" gradientUnits="userSpaceOnUse">
<stop stop-color="#9AFF8D"/>
<stop offset="1" stop-color="#A36DE5"/>
</linearGradient>
<linearGradient id="paint6_linear_2012_3631" x1="21.875" y1="2" x2="21.875" y2="46.1875" gradientUnits="userSpaceOnUse">
<stop stop-color="#9AFF8D"/>
<stop offset="1" stop-color="#A36DE5"/>
</linearGradient>
<clipPath id="clip0_2012_3631">
<rect width="35" height="35" fill="white" transform="translate(4 9)"/>
</clipPath>
</defs>
</svg>
