<svg width="40" height="45" viewBox="0 0 40 45" fill="none" xmlns="http://www.w3.org/2000/svg">
<g clip-path="url(#clip0_2012_3631)">
<path d="M13.5003 30.9653H3.75034V40.7431H13.5003V30.9653ZM15.9378 28.5208V43.1875H1.31284V28.5208H15.9378ZM6.18784 33.4097H11.0628V38.2986H6.18784V33.4097ZM18.3753 23.6319H20.8128V26.0764H18.3753V23.6319ZM20.8128 26.0764H23.2503V28.5208H20.8128V26.0764ZM18.3753 28.5208H20.8128V30.9653H18.3753V28.5208ZM20.8128 30.9653H23.2503V33.4097H20.8128V30.9653ZM18.3753 33.4097H20.8128V35.8542H18.3753V33.4097ZM20.8128 35.8542H23.2503V38.2986H20.8128V35.8542ZM18.3753 38.2986H20.8128V40.7431H18.3753V38.2986ZM20.8128 40.7431H23.2503V43.1875H20.8128V40.7431ZM3.75034 23.6319H6.18784V26.0764H3.75034V23.6319ZM6.18784 21.1875H8.62534V23.6319H6.18784V21.1875ZM1.31284 21.1875H3.75034V23.6319H1.31284V21.1875ZM11.0628 21.1875H13.5003V23.6319H11.0628V21.1875ZM13.5003 23.6319H15.9378V26.0764H13.5003V23.6319ZM15.9378 21.1875H18.3753V23.6319H15.9378V21.1875ZM23.2503 23.6319H25.6878V26.0764H23.2503V23.6319ZM25.6878 21.1875H28.1253V23.6319H25.6878V21.1875ZM28.1253 23.6319H30.5628V26.0764H28.1253V23.6319ZM23.2503 28.5208H25.6878V30.9653H23.2503V28.5208ZM25.6878 26.0764H28.1253V28.5208H25.6878V26.0764ZM28.1253 28.5208H30.5628V30.9653H28.1253V28.5208ZM33.0003 28.5208H35.4378V30.9653H33.0003V28.5208ZM35.4378 26.0764H37.6725L37.8753 28.5208H35.4378V26.0764ZM23.2503 33.4097H25.6878V35.8542H23.2503V33.4097ZM25.6878 30.9653H28.1253V33.4097H25.6878V30.9653ZM30.5628 30.9653H33.0003V33.4097H30.5628V30.9653ZM33.0003 33.4097H35.4378V35.8542H33.0003V33.4097ZM35.4378 30.9653H37.8753V33.4097H35.4378V30.9653ZM25.6878 35.8542H28.1253V38.2986H25.6878V35.8542ZM28.1253 38.2986H30.5628V40.7431H28.1253V38.2986ZM30.5628 35.8542H33.0003V38.2986H30.5628V35.8542ZM33.0003 38.2986H35.4378V40.7431H33.0003V38.2986ZM25.6878 40.7431H28.1253V43.1875H25.6878V40.7431ZM30.5628 40.7431H33.0003V42.9936L30.5628 43.1875V40.7431Z" fill="url(#paint0_linear_2012_3631)"/>
<path d="M11.0628 23.6319H8.62534V26.0764H11.0628V23.6319Z" fill="url(#paint1_linear_2012_3631)"/>
<path d="M3.75034 26.0764H1.3125L1.31284 28.5208L3.75 28.5208L3.75034 26.0764Z" fill="url(#paint2_linear_2012_3631)"/>
<path d="M8.62534 26.0764H6.18784L6.18818 28.5208L8.62534 28.5208V26.0764Z" fill="url(#paint3_linear_2012_3631)"/>
<path d="M18.3753 26.0764H15.9378V28.5208H18.3753V26.0764Z" fill="url(#paint4_linear_2012_3631)"/>
</g>
<path d="M25.5 0C29.5 0 32.5625 1.02083 34.6875 3.0625C36.8542 5.10417 37.9375 7.72917 37.9375 10.9375C37.9375 13.6875 37.1875 15.9375 35.6875 17.6875C34.2292 19.3958 32.4167 20.5417 30.25 21.125C32.9583 21.75 35.2083 23.0833 37 25.125C38.8333 27.1667 39.75 29.5625 39.75 32.3125C39.75 35.8125 38.5833 38.6667 36.25 40.875C33.9167 43.0833 30.9167 44.1875 27.25 44.1875H0V0H25.5ZM1.8125 42.5625H26.8125C30.0625 42.5625 32.7083 41.6042 34.75 39.6875C36.8333 37.7292 37.875 35.3125 37.875 32.4375C37.875 29.5208 36.7708 27.0833 34.5625 25.125C32.3958 23.125 29.6875 22.125 26.4375 22.125H1.8125V42.5625ZM1.8125 20.5625H24.875C28.0417 20.5625 30.7083 19.75 32.875 18.125C35.0417 16.5 36.125 14.125 36.125 11C36.125 8.375 35.2083 6.16667 33.375 4.375C31.5833 2.54167 28.8958 1.625 25.3125 1.625H1.8125V20.5625Z" fill="url(#paint5_linear_2012_3631)"/>
<path d="M25.5 0C29.5 0 32.5625 1.02083 34.6875 3.0625C36.8542 5.10417 37.9375 7.72917 37.9375 10.9375C37.9375 13.6875 37.1875 15.9375 35.6875 17.6875C34.2292 19.3958 32.4167 20.5417 30.25 21.125C32.9583 21.75 35.2083 23.0833 37 25.125C38.8333 27.1667 39.75 29.5625 39.75 32.3125C39.75 35.8125 38.5833 38.6667 36.25 40.875C33.9167 43.0833 30.9167 44.1875 27.25 44.1875H0V0H25.5ZM1.8125 42.5625H26.8125C30.0625 42.5625 32.7083 41.6042 34.75 39.6875C36.8333 37.7292 37.875 35.3125 37.875 32.4375C37.875 29.5208 36.7708 27.0833 34.5625 25.125C32.3958 23.125 29.6875 22.125 26.4375 22.125H1.8125V42.5625ZM1.8125 20.5625H24.875C28.0417 20.5625 30.7083 19.75 32.875 18.125C35.0417 16.5 36.125 14.125 36.125 11C36.125 8.375 35.2083 6.16667 33.375 4.375C31.5833 2.54167 28.8958 1.625 25.3125 1.625H1.8125V20.5625Z" stroke="url(#paint6_linear_2012_3631)"/>
<defs>
<linearGradient id="paint0_linear_2012_3631" x1="19.5939" y1="21.1875" x2="19.5939" y2="43.1875" gradientUnits="userSpaceOnUse">
<stop stop-color="#9AFF8D"/>
<stop offset="1" stop-color="#A36DE5"/>
</linearGradient>
<linearGradient id="paint1_linear_2012_3631" x1="19.5939" y1="21.1875" x2="19.5939" y2="43.1875" gradientUnits="userSpaceOnUse">
<stop stop-color="#9AFF8D"/>
<stop offset="1" stop-color="#A36DE5"/>
</linearGradient>
<linearGradient id="paint2_linear_2012_3631" x1="19.5939" y1="21.1875" x2="19.5939" y2="43.1875" gradientUnits="userSpaceOnUse">
<stop stop-color="#9AFF8D"/>
<stop offset="1" stop-color="#A36DE5"/>
</linearGradient>
<linearGradient id="paint3_linear_2012_3631" x1="19.5939" y1="21.1875" x2="19.5939" y2="43.1875" gradientUnits="userSpaceOnUse">
<stop stop-color="#9AFF8D"/>
<stop offset="1" stop-color="#A36DE5"/>
</linearGradient>
<linearGradient id="paint4_linear_2012_3631" x1="19.5939" y1="21.1875" x2="19.5939" y2="43.1875" gradientUnits="userSpaceOnUse">
<stop stop-color="#9AFF8D"/>
<stop offset="1" stop-color="#A36DE5"/>
</linearGradient>
<linearGradient id="paint5_linear_2012_3631" x1="19.875" y1="0" x2="19.875" y2="44.1875" gradientUnits="userSpaceOnUse">
<stop stop-color="#9AFF8D"/>
<stop offset="1" stop-color="#A36DE5"/>
</linearGradient>
<linearGradient id="paint6_linear_2012_3631" x1="19.875" y1="0" x2="19.875" y2="44.1875" gradientUnits="userSpaceOnUse">
<stop stop-color="#9AFF8D"/>
<stop offset="1" stop-color="#A36DE5"/>
</linearGradient>
<clipPath id="clip0_2012_3631">
<rect width="37" height="37" fill="white" transform="translate(1.3125 6.1875)"/>
</clipPath>
</defs>
</svg>
