<svg width="198" height="120" viewBox="0 0 198 120" fill="none" xmlns="http://www.w3.org/2000/svg">
<path d="M103.982 0C105.19 0.25222 106.336 0.761914 107.329 1.4923C108.449 2.37507 109.305 3.54684 109.805 4.8815L119.317 28.669C122.828 37.4809 126.359 46.2928 129.902 55.11C131.752 59.734 133.586 64.3581 135.462 68.9716C135.861 69.9151 136.067 70.9291 136.067 71.9536C136.067 72.978 135.861 73.9921 135.462 74.9355L119.343 115.138C118.277 117.802 116.348 119.458 113.499 119.888C109.962 120.419 106.798 118.675 105.521 115.574C102.499 108.134 99.5406 100.678 96.5608 93.2215L81.3934 55.2939C76.9047 44.0395 72.4095 32.7877 67.9078 21.5385C66.4152 17.8078 64.9699 14.0507 63.409 10.3463C62.9802 9.33867 62.7776 8.2493 62.8155 7.15492C62.8535 6.06055 63.131 4.98781 63.6286 4.01232C64.1262 3.03683 64.8318 2.18234 65.6955 1.50907C66.5593 0.835794 67.5602 0.360129 68.6278 0.115601C68.7539 0.0840733 68.88 0.0367821 69.0062 0H103.982Z" fill="url(#paint0_linear_2008_3571)"/>
<path d="M41.1625 0C41.5619 0.110346 41.9613 0.210183 42.3449 0.341548C43.3558 0.656475 44.2829 1.19441 45.058 1.91563C45.833 2.63686 46.436 3.52293 46.8226 4.50843C50.286 13.0997 53.7284 21.6962 57.1602 30.3032C62.3377 43.2326 67.5144 56.1624 72.6902 69.0925C73.074 70.0031 73.2717 70.9812 73.2717 71.9693C73.2717 72.9575 73.074 73.9356 72.6902 74.8462L66.946 89.1702L56.4192 115.375C55.8681 116.733 54.9262 117.898 53.7128 118.721C52.4994 119.544 51.0691 119.989 49.6028 119.999C48.0491 120.027 46.5249 119.573 45.2394 118.7C43.954 117.826 42.9705 116.577 42.4238 115.123C39.1759 106.889 35.8649 98.6757 32.5855 90.4628C28.1814 79.3336 23.7562 68.2149 19.3153 57.1068L5.74562 23.1727C4.03233 18.8902 2.3348 14.6025 0.595227 10.3252C-0.162551 8.54227 -0.198097 6.53473 0.496086 4.72606C1.19027 2.91738 2.55991 1.44897 4.31612 0.630549C4.95355 0.373522 5.60868 0.162792 6.27643 0H41.1625Z" fill="url(#paint1_linear_2008_3571)"/>
<path d="M197.672 73.1227C196.71 76.3595 195.275 79.4124 194.056 82.5284C190.524 91.4086 186.972 100.289 183.403 109.159C182.583 111.192 181.753 113.22 180.954 115.264C180.395 116.657 179.431 117.85 178.187 118.69C176.943 119.53 175.476 119.979 173.975 119.978C172.471 119.974 171.003 119.519 169.762 118.67C168.521 117.82 167.564 116.617 167.016 115.217L151.529 76.4699L138.127 42.9982L125.014 10.2096C124.601 9.21166 124.411 8.13546 124.458 7.0564C124.505 5.97734 124.787 4.92152 125.284 3.9629C125.782 3.00428 126.483 2.16604 127.339 1.5069C128.195 0.847761 129.184 0.383659 130.238 0.147106L130.664 0.0209961H165.64C165.75 0.0525236 165.855 0.0998148 165.965 0.126088C167.194 0.381553 168.337 0.943272 169.29 1.75905C170.243 2.57482 170.974 3.61818 171.415 4.79215C178.802 23.2448 186.181 41.7007 193.552 60.1596C194.949 63.6802 196.51 67.1325 197.661 70.7476L197.672 73.1227Z" fill="url(#paint2_linear_2008_3571)"/>
<defs>
<linearGradient id="paint0_linear_2008_3571" x1="57.3915" y1="9.74199" x2="141.628" y2="93.8301" gradientUnits="userSpaceOnUse">
<stop stop-color="#FF00A8"/>
<stop offset="1" stop-color="#6200C6"/>
</linearGradient>
<linearGradient id="paint1_linear_2008_3571" x1="-5.39605" y1="9.71571" x2="78.8244" y2="93.7828" gradientUnits="userSpaceOnUse">
<stop stop-color="#FF00A8"/>
<stop offset="1" stop-color="#6200C6"/>
</linearGradient>
<linearGradient id="paint2_linear_2008_3571" x1="119.028" y1="9.71044" x2="203.254" y2="93.7828" gradientUnits="userSpaceOnUse">
<stop stop-color="#FF00A8"/>
<stop offset="1" stop-color="#6200C6"/>
</linearGradient>
</defs>
</svg>
