<svg width="741" height="120" viewBox="0 0 741 120" fill="none" xmlns="http://www.w3.org/2000/svg">
<g clip-path="url(#clip0_2005_3565)">
<path fill-rule="evenodd" clip-rule="evenodd" d="M363.403 11.3009C361.963 11.305 360.537 11.5939 359.209 12.151C357.881 12.7082 356.676 13.5225 355.663 14.5472C354.651 15.5719 353.852 16.7866 353.311 18.1215C352.77 19.4564 352.499 20.8851 352.513 22.3253C352.481 23.7756 352.739 25.2176 353.272 26.5668C353.805 27.916 354.603 29.1451 355.617 30.1821C356.632 31.219 357.844 32.0429 359.181 32.6053C360.519 33.1678 361.955 33.4576 363.406 33.4576C364.857 33.4576 366.293 33.1678 367.63 32.6053C368.968 32.0429 370.179 31.219 371.194 30.1821C372.209 29.1451 373.006 27.916 373.539 26.5668C374.072 25.2176 374.331 23.7756 374.299 22.3253C374.299 16.1479 369.389 11.3009 363.403 11.3009ZM372.989 38.8018H353.953V104.113H372.989V38.8018ZM242.86 13.7218H261.417V38.807H275.663V56.2539H261.417V79.2731C261.417 82.6644 264.052 85.3305 267.282 85.3305H275.542V103.868H267.282C253.871 103.868 242.86 92.8435 242.86 79.1531V56.1287H234.25V38.6818H242.865L242.86 13.7218ZM321.03 37.3513C312.41 37.3513 305.584 40.9879 302.954 46.68V13.7218H283.918V103.993H302.954V67.3983C302.954 59.7653 307.859 54.4331 314.8 54.4331C321.865 54.4331 325.816 59.04 325.816 66.7983V104.113H344.852V64.3722C344.852 47.4053 336.231 37.3513 321.03 37.3513ZM400.151 38.687V47.6505C403.021 41.1079 409.966 37.3513 418.707 37.2313C420.022 37.2313 421.697 37.3513 423.732 37.5966V55.7687C421.642 55.3702 419.519 55.1676 417.392 55.1635C406.496 55.1635 400.151 61.3461 400.151 72.1253V103.993H381.119V38.687H400.151ZM477.241 47.2852C475.325 41.5931 467.785 37.5913 458.089 37.5913C448.994 37.5913 441.328 40.8626 435.228 47.4053C429.243 53.8279 426.127 61.9461 426.127 71.4C426.127 80.8487 429.243 88.847 435.228 95.5096C441.333 101.927 448.994 105.204 458.089 105.204C467.785 105.204 475.325 101.202 477.241 95.5096V104.113H496.277V13.7218H477.241V47.2852ZM473.41 83.0296C470.175 86.1809 466.23 87.6366 461.565 87.6366C457.014 87.6366 453.059 86.0609 449.949 83.0296C448.403 81.5165 447.182 79.7046 446.359 77.7044C445.537 75.7041 445.13 73.5573 445.164 71.3948C445.164 66.9131 446.719 63.0366 449.949 59.8852C451.442 58.3168 453.246 57.0759 455.245 56.2415C457.243 55.4071 459.394 54.9974 461.56 55.0383C466.35 55.0383 470.3 56.6139 473.41 59.8905C476.766 63.0366 478.441 66.9131 478.441 71.4C478.441 75.8818 476.766 79.7583 473.41 83.0296ZM551.221 39.047L568.462 70.0644L580.073 38.8018H598.744L572.172 107.87L551.221 70.3044L530.274 107.87L503.817 38.8018H522.494L533.985 70.0644L551.221 39.047ZM630.106 37.2313C620.29 37.2313 612.03 40.3826 605.564 46.6852C599.224 52.8626 595.988 61.1009 595.988 71.28V71.8852C595.988 82.0592 599.224 90.3026 605.564 96.48C612.15 102.543 620.53 105.689 631.061 105.689C640.876 105.689 648.897 103.753 655.002 99.7513V82.9096C649.017 87.1513 641.356 89.2122 632.141 89.2122C622.085 89.2122 615.5 84.2453 615.14 76.4922H662.423C662.663 74.5513 662.783 72.3705 662.783 70.1896C662.783 60.8609 659.673 53.1026 653.687 46.8052C647.702 40.3826 639.681 37.2313 630.106 37.2313ZM615.14 64.007C615.26 60.9809 616.82 58.4348 619.69 56.3739C622.685 54.3183 626.035 53.2279 630.106 53.2279C637.646 53.2279 643.512 58.1948 643.512 64.007H615.14ZM708.156 37.5913C717.252 37.5913 724.912 40.8626 730.897 47.4053C737.003 53.9479 740.118 61.8261 740.118 71.2748C740.118 80.7287 737.003 88.727 730.897 95.3896C724.912 101.807 717.252 105.084 708.156 105.084C698.46 105.084 690.915 101.082 689 95.3896V103.993H669.968V13.7218H689V47.2852C690.915 41.5931 698.46 37.5913 708.156 37.5913ZM704.681 87.6366C709.231 87.6366 713.061 86.1757 716.297 83.0296C719.527 79.7583 721.082 75.8818 721.082 71.3948C721.082 66.9131 719.527 63.0366 716.297 59.8852C713.181 56.6139 709.231 55.0383 704.681 55.0383C700.015 55.0383 696.065 56.6139 692.715 59.8905C689.48 63.0366 687.805 66.9131 687.805 71.4C687.805 75.8818 689.48 79.7583 692.715 83.0296C695.945 86.0557 699.895 87.6366 704.681 87.6366Z" fill="white"/>
<path d="M106.73 -0.010376C107.93 0.240059 109.068 0.746146 110.054 1.47136C111.166 2.34789 112.016 3.51136 112.512 4.83658L121.957 28.4557C125.443 37.2053 128.95 45.9548 132.467 54.7096C134.304 59.3009 136.125 63.8922 137.988 68.4731C138.384 69.4099 138.589 70.4167 138.589 71.434C138.589 72.4512 138.384 73.4581 137.988 74.3948L121.983 114.313C120.924 116.958 119.009 118.602 116.181 119.03C112.669 119.557 109.527 117.824 108.259 114.746C105.259 107.358 102.321 99.9549 99.362 92.5514L84.3019 54.8922C79.845 43.7175 75.3816 32.5453 70.9117 21.3757C69.4297 17.6714 67.9947 13.9409 66.4449 10.2627C66.019 9.26221 65.8179 8.18054 65.8555 7.09391C65.8932 6.00728 66.1688 4.94213 66.6629 3.97355C67.157 3.00497 67.8575 2.15652 68.7151 1.48801C69.5728 0.819503 70.5666 0.347205 71.6266 0.104407C71.7519 0.0731023 71.8771 0.0261458 72.0024 -0.010376H106.73Z" fill="url(#paint0_linear_2005_3565)"/>
<path d="M44.3555 -0.010376C44.7521 0.0991892 45.1487 0.19832 45.5296 0.328754C46.5333 0.641453 47.4539 1.17558 48.2235 1.8917C48.993 2.60782 49.5918 3.48763 49.9756 4.46615C53.4145 12.9966 56.8325 21.5322 60.2401 30.0783C65.3809 42.9163 70.5209 55.7545 75.6602 68.5931C76.0412 69.4973 76.2375 70.4685 76.2375 71.4496C76.2375 72.4308 76.0412 73.402 75.6602 74.3061L69.9566 88.5288L59.5043 114.548C58.957 115.897 58.0218 117.053 56.8171 117.87C55.6123 118.688 54.192 119.129 52.7361 119.139C51.1934 119.167 49.68 118.716 48.4037 117.849C47.1273 116.982 46.1507 115.742 45.6079 114.297C42.383 106.122 39.0955 97.967 35.8392 89.8122C31.4663 78.7618 27.0725 67.7218 22.663 56.6922L9.18933 22.9983C7.48816 18.7461 5.80265 14.4888 4.07539 10.2418C3.32297 8.47144 3.28768 6.47811 3.97695 4.68224C4.66622 2.88636 6.02617 1.42834 7.76995 0.615711C8.40286 0.360502 9.05336 0.151264 9.71638 -0.010376H44.3555Z" fill="url(#paint1_linear_2005_3565)"/>
<path d="M199.757 72.5947C198.802 75.8086 197.378 78.8399 196.167 81.9339C192.66 90.7512 189.133 99.5686 185.589 108.376C184.775 110.395 183.951 112.409 183.158 114.438C182.602 115.821 181.645 117.006 180.41 117.84C179.175 118.674 177.718 119.119 176.228 119.118C174.735 119.115 173.277 118.662 172.045 117.819C170.812 116.976 169.863 115.782 169.319 114.391L153.94 75.9182L140.634 42.6834L127.614 10.1269C127.204 9.136 127.015 8.06741 127.062 6.99599C127.108 5.92457 127.388 4.87622 127.882 3.92439C128.376 2.97255 129.072 2.14024 129.922 1.48577C130.772 0.83129 131.754 0.370473 132.801 0.135593L133.224 0.010376H167.952C168.061 0.0416803 168.166 0.0886368 168.275 0.114724C169.495 0.368381 170.63 0.926125 171.576 1.73613C172.522 2.54613 173.248 3.5821 173.686 4.74777C181.021 23.0699 188.347 41.3951 195.666 59.7234C197.054 63.2191 198.604 66.6469 199.747 70.2365L199.757 72.5947Z" fill="url(#paint2_linear_2005_3565)"/>
</g>
<defs>
<linearGradient id="paint0_linear_2005_3565" x1="60.4699" y1="9.66267" x2="144.11" y2="93.1557" gradientUnits="userSpaceOnUse">
<stop stop-color="#FF00A8"/>
<stop offset="1" stop-color="#6200C6"/>
</linearGradient>
<linearGradient id="paint1_linear_2005_3565" x1="-1.87348" y1="9.63658" x2="81.7509" y2="93.1087" gradientUnits="userSpaceOnUse">
<stop stop-color="#FF00A8"/>
<stop offset="1" stop-color="#6200C6"/>
</linearGradient>
<linearGradient id="paint2_linear_2005_3565" x1="121.67" y1="9.63125" x2="205.3" y2="93.1086" gradientUnits="userSpaceOnUse">
<stop stop-color="#FF00A8"/>
<stop offset="1" stop-color="#6200C6"/>
</linearGradient>
<clipPath id="clip0_2005_3565">
<rect width="741" height="120" fill="white"/>
</clipPath>
</defs>
</svg>
