<svg width="67" height="46" viewBox="0 0 67 46" fill="none" xmlns="http://www.w3.org/2000/svg">
<path d="M39.896 14.152V14.408L40.344 20.296L33.56 20.488C33.0907 21.8533 32.6427 23.1973 32.216 24.52C31.7893 25.8427 31.3413 27.1867 30.872 28.552C31.3413 28.5947 32.3013 28.616 33.752 28.616C35.2027 28.5733 37.016 28.6373 39.192 28.808C39.32 29.1493 39.384 29.4693 39.384 29.768C39.4267 30.0667 39.448 30.4293 39.448 30.856C39.4907 31.2827 39.512 31.7947 39.512 32.392C39.512 32.9893 39.5547 33.7787 39.64 34.76V34.888C38.9573 34.9733 38.3173 35.0373 37.72 35.08C37.1227 35.08 36.44 35.08 35.672 35.08C34.904 35.08 33.9653 35.08 32.856 35.08C31.7893 35.08 30.4027 35.1013 28.696 35.144H28.632H28.504C28.4187 35.272 28.248 35.72 27.992 36.488C27.7787 37.256 27.5013 38.1307 27.16 39.112C26.8187 40.0933 26.4347 41.1173 26.008 42.184C25.5813 43.208 25.1547 44.104 24.728 44.872L24.664 44.936H24.536C24.4507 44.936 23.8533 44.9573 22.744 45C21.6773 45.0427 19.8427 45.0213 17.24 44.936C17.7093 43.0587 18.264 41.3307 18.904 39.752C19.544 38.1307 20.0773 36.5307 20.504 34.952H20.44C20.44 34.952 20.312 34.952 20.056 34.952C19.8427 34.9093 19.4587 34.888 18.904 34.888C18.3493 34.888 17.5813 34.888 16.6 34.888C15.6613 34.888 14.4667 34.9093 13.016 34.952C12.6747 35.9333 12.4187 36.6373 12.248 37.064C12.0773 37.4907 11.9067 37.896 11.736 38.28C11.608 38.664 11.416 39.1547 11.16 39.752C10.904 40.3493 10.52 41.3093 10.008 42.632C9.88 43.0587 9.752 43.4213 9.624 43.72C9.53867 44.0187 9.368 44.4027 9.112 44.872C9.02667 44.9573 8.856 45 8.6 45C8.17333 44.9573 7.40533 44.936 6.296 44.936C5.18667 44.8933 3.672 44.9147 1.752 45C2.09333 43.208 2.56267 41.5227 3.16 39.944C3.8 38.3227 4.41867 36.7013 5.016 35.08C4.29067 35.08 3.56533 35.1227 2.84 35.208C2.11467 35.2507 1.432 35.2507 0.792 35.208C0.706667 34.0987 0.664 32.9467 0.664 31.752C0.664 30.5573 0.642667 29.384 0.6 28.232C0.642667 28.2747 0.770667 28.3173 0.984 28.36C1.19733 28.4027 1.53867 28.4453 2.008 28.488C2.52 28.5307 3.224 28.5733 4.12 28.616C5.016 28.616 6.18933 28.5947 7.64 28.552C7.768 28.424 7.87467 28.2107 7.96 27.912C8.04533 27.6133 8.17333 27.1653 8.344 26.568C8.51467 25.9707 8.74933 25.1813 9.048 24.2C9.34667 23.2187 9.752 21.9813 10.264 20.488C10.264 20.488 10.2 20.488 10.072 20.488C9.944 20.488 9.58133 20.488 8.984 20.488C8.42933 20.488 7.55467 20.5093 6.36 20.552C5.16533 20.552 3.52267 20.552 1.432 20.552L1.304 13.64C1.304 13.64 1.368 13.6613 1.496 13.704C1.66667 13.7467 2.02933 13.8107 2.584 13.896C3.18133 13.9387 4.09867 13.9813 5.336 14.024C6.57333 14.024 8.28 14.0027 10.456 13.96C10.7547 13.96 11.096 13.9813 11.48 14.024C11.864 14.024 12.184 14.0027 12.44 13.96C12.44 13.9173 12.44 13.896 12.44 13.896C12.4827 13.896 12.504 13.8747 12.504 13.832C12.632 13.576 12.824 13.0427 13.08 12.232C13.3787 11.4213 13.6773 10.5253 13.976 9.544C14.3173 8.52 14.616 7.53867 14.872 6.6C15.1707 5.61867 15.384 4.82933 15.512 4.232V4.168C15.64 4.21067 15.832 4.25333 16.088 4.296C16.3867 4.296 16.8133 4.296 17.368 4.296C17.9653 4.296 18.7333 4.31733 19.672 4.36C20.6107 4.40267 21.7627 4.44533 23.128 4.488C23.128 4.57333 23.0853 4.76533 23 5.064C22.9573 5.36266 22.8293 5.87466 22.616 6.6C22.4027 7.28266 22.104 8.22133 21.72 9.416C21.336 10.568 20.8667 12.0613 20.312 13.896C21.464 13.9387 22.6373 13.9387 23.832 13.896C25.0267 13.8533 26.392 13.8533 27.928 13.896C28.2693 13.3413 28.7173 12.2107 29.272 10.504C29.8267 8.79733 30.4453 6.664 31.128 4.104H31.192H31.256C32.4507 4.31733 33.6453 4.36 34.84 4.232C36.0773 4.104 37.2933 4.14666 38.488 4.36C38.5307 4.616 38.5307 4.89333 38.488 5.192C38.4453 5.448 38.3173 5.896 38.104 6.536C37.9333 7.176 37.656 8.09333 37.272 9.288C36.9307 10.44 36.4613 12.04 35.864 14.088C36.5467 14.088 37.208 14.1093 37.848 14.152C38.5307 14.152 39.2133 14.152 39.896 14.152ZM16.6 24.456C16.1733 25.8213 15.7253 27.1867 15.256 28.552L23.256 28.488C23.256 28.4453 23.256 28.424 23.256 28.424C23.2987 28.3813 23.32 28.3387 23.32 28.296C23.6187 26.9733 24.024 25.6933 24.536 24.456C25.048 23.2187 25.496 21.896 25.88 20.488V20.424H25.816H25.752C24.3867 20.3813 23.0853 20.36 21.848 20.36C20.6107 20.3173 19.3733 20.296 18.136 20.296H18.008V20.36C17.5387 21.7253 17.0693 23.0907 16.6 24.456ZM53.3965 1.288C54.1218 1.33066 54.8472 1.30933 55.5725 1.224V9.8C55.5725 10.3547 55.5725 10.9307 55.5725 11.528C55.6152 12.1253 55.6365 12.744 55.6365 13.384C56.9592 13.3413 58.3458 13.2773 59.7965 13.192C61.2898 13.1067 63.1245 13 65.3005 12.872C65.5992 13.2133 65.7698 13.7253 65.8125 14.408C65.8552 15.048 65.8552 15.752 65.8125 16.52C65.7698 17.288 65.7058 18.0773 65.6205 18.888C65.5778 19.656 65.5992 20.3173 65.6845 20.872H55.7645C55.7645 23.176 55.7645 25.4373 55.7645 27.656C55.7645 29.832 55.7858 31.88 55.8285 33.8C56.2552 34.3973 56.8738 34.8667 57.6845 35.208C58.4952 35.5493 59.3698 35.8267 60.3085 36.04C61.2472 36.2107 62.1858 36.3173 63.1245 36.36C64.1058 36.4027 64.9592 36.4027 65.6845 36.36C65.7698 36.9573 65.8552 37.6187 65.9405 38.344C66.0258 39.0693 66.0898 39.816 66.1325 40.584C66.1752 41.352 66.1538 42.12 66.0685 42.888C66.0258 43.656 65.8978 44.36 65.6845 45C63.9778 45.0853 62.2072 45.0853 60.3725 45C58.5378 44.872 56.8098 44.616 55.1885 44.232C53.5672 43.848 52.1165 43.272 50.8365 42.504C49.5992 41.736 48.7032 40.6907 48.1485 39.368C47.5938 36.0827 47.2738 32.9893 47.1885 30.088C47.1032 27.144 47.0818 24.1147 47.1245 21C46.4418 21.0427 45.7165 21.064 44.9485 21.064C44.2232 21.064 43.4125 21.064 42.5165 21.064L42.7085 13.256C43.5618 13.2987 44.3512 13.32 45.0765 13.32C45.8445 13.32 46.5698 13.32 47.2525 13.32C47.2525 12.3813 47.2312 11.3787 47.1885 10.312C47.1458 9.20266 47.1245 8.09333 47.1245 6.984C47.1245 5.87467 47.1245 4.808 47.1245 3.784C47.1672 2.76 47.2312 1.84266 47.3165 1.032C47.8712 0.946665 48.4685 0.925332 49.1085 0.967999C49.7912 1.01066 50.4952 1.07466 51.2205 1.16C51.9458 1.20266 52.6712 1.24533 53.3965 1.288Z" fill="url(#paint0_linear_2015_3644)"/>
<defs>
<linearGradient id="paint0_linear_2015_3644" x1="29.5" y1="-7" x2="44" y2="60" gradientUnits="userSpaceOnUse">
<stop stop-color="#9AFF8D"/>
<stop offset="1" stop-color="#A36DE5"/>
</linearGradient>
</defs>
</svg>
