<svg width="286" height="63" viewBox="0 0 286 63" fill="none" xmlns="http://www.w3.org/2000/svg">
<path d="M16 22.4795H26.5596V10H34.5605V22.4795H48.7753V29.9749H34.5605V55.5047H48.7753V63H34.5605C33.4774 63 32.4486 62.8098 31.4738 62.4293C30.4991 62.0234 29.6462 61.4908 28.9152 60.8313C28.1841 60.1464 27.602 59.3475 27.1688 58.4343C26.7626 57.5212 26.5596 56.5446 26.5596 55.5047V29.9749H16V22.4795Z" fill="white"/>
<path d="M70.0975 29.9749V63H62.1372V22.4795H70.0975V29.6324C70.1516 28.6432 70.3953 27.7174 70.8285 26.855C71.2617 25.9672 71.8303 25.2063 72.5343 24.5721C73.2653 23.9127 74.1047 23.4054 75.0523 23.0503C76 22.6698 77.0153 22.4795 78.0984 22.4795H86.5866C87.6967 22.4795 88.7256 22.6825 89.6733 23.0883C90.648 23.4688 91.5009 24.0014 92.2319 24.6863C92.963 25.3458 93.5316 26.1321 93.9377 27.0452C94.3709 27.9584 94.5875 28.9349 94.5875 29.9749V36.8234H86.5866V29.9749H70.0975Z" fill="white"/>
<path d="M104.538 45.308C104.538 44.268 104.741 43.3041 105.147 42.4164C105.58 41.5032 106.149 40.7042 106.853 40.0194C107.584 39.3345 108.437 38.8019 109.412 38.4214C110.386 38.0156 111.415 37.8126 112.498 37.8126H133.13V29.9749H107.015V22.4795H133.13C134.24 22.4795 135.282 22.6825 136.257 23.0883C137.232 23.4688 138.071 24.0014 138.775 24.6863C139.506 25.3458 140.075 26.1321 140.481 27.0452C140.914 27.9584 141.131 28.9349 141.131 29.9749V63H133.13V56.1515C133.049 57.09 132.778 57.9777 132.318 58.8148C131.857 59.6518 131.262 60.3874 130.531 61.0215C129.827 61.6303 129.014 62.1122 128.094 62.4673C127.173 62.8224 126.199 63 125.17 63H112.498C111.415 63 110.386 62.8098 109.412 62.4293C108.437 62.0234 107.584 61.4908 106.853 60.8313C106.149 60.1464 105.58 59.3475 105.147 58.4343C104.741 57.5212 104.538 56.5446 104.538 55.5047V45.308ZM112.498 55.5047H133.13V45.308H112.498V55.5047Z" fill="white"/>
<path d="M153.64 22.4795H189.421V24.4961L166.393 55.5047H189.421V63H152.828V60.9835L175.856 29.9749H153.64V22.4795Z" fill="white"/>
<path d="M238.523 55.5047C238.523 56.5446 238.306 57.5212 237.873 58.4343C237.467 59.3475 236.898 60.1464 236.167 60.8313C235.463 61.4908 234.624 62.0234 233.649 62.4293C232.701 62.8098 231.672 63 230.562 63H209.078C207.995 63 206.966 62.8098 205.991 62.4293C205.016 62.0234 204.163 61.4908 203.432 60.8313C202.728 60.1464 202.16 59.3475 201.727 58.4343C201.32 57.5212 201.117 56.5446 201.117 55.5047V29.9749C201.117 28.9349 201.32 27.9584 201.727 27.0452C202.16 26.1321 202.728 25.3458 203.432 24.6863C204.163 24.0014 205.016 23.4688 205.991 23.0883C206.966 22.6825 207.995 22.4795 209.078 22.4795H230.562C231.672 22.4795 232.701 22.6825 233.649 23.0883C234.624 23.4688 235.463 24.0014 236.167 24.6863C236.898 25.3458 237.467 26.1321 237.873 27.0452C238.306 27.9584 238.523 28.9349 238.523 29.9749V55.5047ZM209.078 29.9749V55.5047H230.562V29.9749H209.078Z" fill="white"/>
<path d="M277.999 55.5047V46.107H259.032C257.922 46.107 256.88 45.9167 255.905 45.5363C254.93 45.1304 254.078 44.5977 253.347 43.9383C252.643 43.2534 252.074 42.4544 251.641 41.5413C251.235 40.6281 251.032 39.6516 251.032 38.6116V29.9749C251.032 28.9349 251.235 27.9584 251.641 27.0452C252.074 26.1321 252.643 25.3458 253.347 24.6863C254.078 24.0014 254.93 23.4688 255.905 23.0883C256.88 22.6825 257.922 22.4795 259.032 22.4795H284.335V29.9749H259.032V38.6116H277.999C279.109 38.6116 280.138 38.8145 281.086 39.2204C282.06 39.6009 282.913 40.1335 283.644 40.8184C284.375 41.4779 284.944 42.2642 285.35 43.1773C285.783 44.0905 286 45.067 286 46.107V55.5047C286 56.5446 285.783 57.5212 285.35 58.4343C284.944 59.3475 284.375 60.1464 283.644 60.8313C282.913 61.4908 282.06 62.0234 281.086 62.4293C280.138 62.8098 279.109 63 277.999 63H251.032V55.5047H277.999Z" fill="white"/>
<path d="M16 22.4795H26.5596V10H34.5605V22.4795H48.7753V29.9749H34.5605V55.5047H48.7753V63H34.5605C33.4774 63 32.4486 62.8098 31.4738 62.4293C30.4991 62.0234 29.6462 61.4908 28.9152 60.8313C28.1841 60.1464 27.602 59.3475 27.1688 58.4343C26.7626 57.5212 26.5596 56.5446 26.5596 55.5047V29.9749H16V22.4795Z" stroke="white"/>
<path d="M70.0975 29.9749V63H62.1372V22.4795H70.0975V29.6324C70.1516 28.6432 70.3953 27.7174 70.8285 26.855C71.2617 25.9672 71.8303 25.2063 72.5343 24.5721C73.2653 23.9127 74.1047 23.4054 75.0523 23.0503C76 22.6698 77.0153 22.4795 78.0984 22.4795H86.5866C87.6967 22.4795 88.7256 22.6825 89.6733 23.0883C90.648 23.4688 91.5009 24.0014 92.2319 24.6863C92.963 25.3458 93.5316 26.1321 93.9377 27.0452C94.3709 27.9584 94.5875 28.9349 94.5875 29.9749V36.8234H86.5866V29.9749H70.0975Z" stroke="white"/>
<path d="M104.538 45.308C104.538 44.268 104.741 43.3041 105.147 42.4164C105.58 41.5032 106.149 40.7042 106.853 40.0194C107.584 39.3345 108.437 38.8019 109.412 38.4214C110.386 38.0156 111.415 37.8126 112.498 37.8126H133.13V29.9749H107.015V22.4795H133.13C134.24 22.4795 135.282 22.6825 136.257 23.0883C137.232 23.4688 138.071 24.0014 138.775 24.6863C139.506 25.3458 140.075 26.1321 140.481 27.0452C140.914 27.9584 141.131 28.9349 141.131 29.9749V63H133.13V56.1515C133.049 57.09 132.778 57.9777 132.318 58.8148C131.857 59.6518 131.262 60.3874 130.531 61.0215C129.827 61.6303 129.014 62.1122 128.094 62.4673C127.173 62.8224 126.199 63 125.17 63H112.498C111.415 63 110.386 62.8098 109.412 62.4293C108.437 62.0234 107.584 61.4908 106.853 60.8313C106.149 60.1464 105.58 59.3475 105.147 58.4343C104.741 57.5212 104.538 56.5446 104.538 55.5047V45.308ZM112.498 55.5047H133.13V45.308H112.498V55.5047Z" stroke="white"/>
<path d="M153.64 22.4795H189.421V24.4961L166.393 55.5047H189.421V63H152.828V60.9835L175.856 29.9749H153.64V22.4795Z" stroke="white"/>
<path d="M238.523 55.5047C238.523 56.5446 238.306 57.5212 237.873 58.4343C237.467 59.3475 236.898 60.1464 236.167 60.8313C235.463 61.4908 234.624 62.0234 233.649 62.4293C232.701 62.8098 231.672 63 230.562 63H209.078C207.995 63 206.966 62.8098 205.991 62.4293C205.016 62.0234 204.163 61.4908 203.432 60.8313C202.728 60.1464 202.16 59.3475 201.727 58.4343C201.32 57.5212 201.117 56.5446 201.117 55.5047V29.9749C201.117 28.9349 201.32 27.9584 201.727 27.0452C202.16 26.1321 202.728 25.3458 203.432 24.6863C204.163 24.0014 205.016 23.4688 205.991 23.0883C206.966 22.6825 207.995 22.4795 209.078 22.4795H230.562C231.672 22.4795 232.701 22.6825 233.649 23.0883C234.624 23.4688 235.463 24.0014 236.167 24.6863C236.898 25.3458 237.467 26.1321 237.873 27.0452C238.306 27.9584 238.523 28.9349 238.523 29.9749V55.5047ZM209.078 29.9749V55.5047H230.562V29.9749H209.078Z" stroke="white"/>
<path d="M277.999 55.5047V46.107H259.032C257.922 46.107 256.88 45.9167 255.905 45.5363C254.93 45.1304 254.078 44.5977 253.347 43.9383C252.643 43.2534 252.074 42.4544 251.641 41.5413C251.235 40.6281 251.032 39.6516 251.032 38.6116V29.9749C251.032 28.9349 251.235 27.9584 251.641 27.0452C252.074 26.1321 252.643 25.3458 253.347 24.6863C254.078 24.0014 254.93 23.4688 255.905 23.0883C256.88 22.6825 257.922 22.4795 259.032 22.4795H284.335V29.9749H259.032V38.6116H277.999C279.109 38.6116 280.138 38.8145 281.086 39.2204C282.06 39.6009 282.913 40.1335 283.644 40.8184C284.375 41.4779 284.944 42.2642 285.35 43.1773C285.783 44.0905 286 45.067 286 46.107V55.5047C286 56.5446 285.783 57.5212 285.35 58.4343C284.944 59.3475 284.375 60.1464 283.644 60.8313C282.913 61.4908 282.06 62.0234 281.086 62.4293C280.138 62.8098 279.109 63 277.999 63H251.032V55.5047H277.999Z" stroke="white"/>
<rect x="216" y="39" width="8" height="8" fill="white"/>
<rect x="8" width="8" height="8" fill="white"/>
<rect y="22" width="8" height="8" fill="white"/>
</svg>
