<svg width="286" height="63" viewBox="0 0 286 63" fill="none" xmlns="http://www.w3.org/2000/svg">
<path d="M70.097 29.9748V63H62.1367V22.4795H70.097V29.6324C70.1512 28.6432 70.3948 27.7173 70.8281 26.8549C71.2613 25.9672 71.8299 25.2062 72.5338 24.5721C73.2649 23.9126 74.1042 23.4053 75.0519 23.0502C75.9995 22.6697 77.0149 22.4795 78.0979 22.4795H86.5862C87.6963 22.4795 88.7252 22.6824 89.6728 23.0883C90.6475 23.4687 91.5004 24.0014 92.2315 24.6862C92.9625 25.3457 93.5311 26.132 93.9373 27.0452C94.3705 27.9583 94.5871 28.9349 94.5871 29.9748V36.8234H86.5862V29.9748H70.097Z" fill="url(#paint0_linear_2021_2015)"/>
<path d="M104.537 45.3079C104.537 44.268 104.741 43.3041 105.147 42.4163C105.58 41.5032 106.148 40.7042 106.852 40.0193C107.583 39.3345 108.436 38.8018 109.411 38.4213C110.386 38.0155 111.415 37.8126 112.498 37.8126H133.13V29.9748H107.015V22.4795H133.13C134.24 22.4795 135.282 22.6824 136.257 23.0883C137.231 23.4687 138.071 24.0014 138.775 24.6862C139.506 25.3457 140.074 26.132 140.481 27.0452C140.914 27.9583 141.13 28.9349 141.13 29.9748V63H133.13V56.1514C133.048 57.0899 132.778 57.9777 132.317 58.8147C131.857 59.6518 131.261 60.3874 130.53 61.0215C129.826 61.6302 129.014 62.1122 128.093 62.4673C127.173 62.8224 126.198 63 125.169 63H112.498C111.415 63 110.386 62.8097 109.411 62.4292C108.436 62.0234 107.583 61.4907 106.852 60.8313C106.148 60.1464 105.58 59.3474 105.147 58.4343C104.741 57.5211 104.537 56.5446 104.537 55.5046V45.3079ZM112.498 55.5046H133.13V45.3079H112.498V55.5046Z" fill="url(#paint1_linear_2021_2015)"/>
<path d="M153.639 22.4795H189.42V24.496L166.392 55.5046H189.42V63H152.827V60.9834L175.855 29.9748H153.639V22.4795Z" fill="url(#paint2_linear_2021_2015)"/>
<path d="M238.522 55.5046C238.522 56.5446 238.305 57.5211 237.872 58.4343C237.466 59.3474 236.898 60.1464 236.167 60.8313C235.463 61.4907 234.623 62.0234 233.648 62.4292C232.701 62.8097 231.672 63 230.562 63H209.077C207.994 63 206.965 62.8097 205.991 62.4292C205.016 62.0234 204.163 61.4907 203.432 60.8313C202.728 60.1464 202.159 59.3474 201.726 58.4343C201.32 57.5211 201.117 56.5446 201.117 55.5046V29.9748C201.117 28.9349 201.32 27.9583 201.726 27.0452C202.159 26.132 202.728 25.3457 203.432 24.6862C204.163 24.0014 205.016 23.4687 205.991 23.0883C206.965 22.6824 207.994 22.4795 209.077 22.4795H230.562C231.672 22.4795 232.701 22.6824 233.648 23.0883C234.623 23.4687 235.463 24.0014 236.167 24.6862C236.898 25.3457 237.466 26.132 237.872 27.0452C238.305 27.9583 238.522 28.9349 238.522 29.9748V55.5046ZM209.077 29.9748V55.5046H230.562V29.9748H209.077Z" fill="url(#paint3_linear_2021_2015)"/>
<path d="M277.999 55.5046V46.1069H259.032C257.922 46.1069 256.88 45.9167 255.905 45.5362C254.93 45.1304 254.077 44.5977 253.346 43.9382C252.642 43.2534 252.074 42.4544 251.64 41.5412C251.234 40.6281 251.031 39.6515 251.031 38.6116V29.9748C251.031 28.9349 251.234 27.9583 251.64 27.0452C252.074 26.132 252.642 25.3457 253.346 24.6862C254.077 24.0014 254.93 23.4687 255.905 23.0883C256.88 22.6824 257.922 22.4795 259.032 22.4795H284.334V29.9748H259.032V38.6116H277.999C279.109 38.6116 280.138 38.8145 281.085 39.2203C282.06 39.6008 282.913 40.1335 283.644 40.8183C284.375 41.4778 284.944 42.2641 285.35 43.1773C285.783 44.0904 286 45.067 286 46.1069V55.5046C286 56.5446 285.783 57.5211 285.35 58.4343C284.944 59.3474 284.375 60.1464 283.644 60.8313C282.913 61.4907 282.06 62.0234 281.085 62.4292C280.138 62.8097 279.109 63 277.999 63H251.031V55.5046H277.999Z" fill="url(#paint4_linear_2021_2015)"/>
<path d="M70.097 29.9748V63H62.1367V22.4795H70.097V29.6324C70.1512 28.6432 70.3948 27.7173 70.8281 26.8549C71.2613 25.9672 71.8299 25.2062 72.5338 24.5721C73.2649 23.9126 74.1042 23.4053 75.0519 23.0502C75.9995 22.6697 77.0149 22.4795 78.0979 22.4795H86.5862C87.6963 22.4795 88.7252 22.6824 89.6728 23.0883C90.6475 23.4687 91.5004 24.0014 92.2315 24.6862C92.9625 25.3457 93.5311 26.132 93.9373 27.0452C94.3705 27.9583 94.5871 28.9349 94.5871 29.9748V36.8234H86.5862V29.9748H70.097Z" stroke="url(#paint5_linear_2021_2015)"/>
<path d="M104.537 45.3079C104.537 44.268 104.741 43.3041 105.147 42.4163C105.58 41.5032 106.148 40.7042 106.852 40.0193C107.583 39.3345 108.436 38.8018 109.411 38.4213C110.386 38.0155 111.415 37.8126 112.498 37.8126H133.13V29.9748H107.015V22.4795H133.13C134.24 22.4795 135.282 22.6824 136.257 23.0883C137.231 23.4687 138.071 24.0014 138.775 24.6862C139.506 25.3457 140.074 26.132 140.481 27.0452C140.914 27.9583 141.13 28.9349 141.13 29.9748V63H133.13V56.1514C133.048 57.0899 132.778 57.9777 132.317 58.8147C131.857 59.6518 131.261 60.3874 130.53 61.0215C129.826 61.6302 129.014 62.1122 128.093 62.4673C127.173 62.8224 126.198 63 125.169 63H112.498C111.415 63 110.386 62.8097 109.411 62.4292C108.436 62.0234 107.583 61.4907 106.852 60.8313C106.148 60.1464 105.58 59.3474 105.147 58.4343C104.741 57.5211 104.537 56.5446 104.537 55.5046V45.3079ZM112.498 55.5046H133.13V45.3079H112.498V55.5046Z" stroke="url(#paint6_linear_2021_2015)"/>
<path d="M153.639 22.4795H189.42V24.496L166.392 55.5046H189.42V63H152.827V60.9834L175.855 29.9748H153.639V22.4795Z" stroke="url(#paint7_linear_2021_2015)"/>
<path d="M238.522 55.5046C238.522 56.5446 238.305 57.5211 237.872 58.4343C237.466 59.3474 236.898 60.1464 236.167 60.8313C235.463 61.4907 234.623 62.0234 233.648 62.4292C232.701 62.8097 231.672 63 230.562 63H209.077C207.994 63 206.965 62.8097 205.991 62.4292C205.016 62.0234 204.163 61.4907 203.432 60.8313C202.728 60.1464 202.159 59.3474 201.726 58.4343C201.32 57.5211 201.117 56.5446 201.117 55.5046V29.9748C201.117 28.9349 201.32 27.9583 201.726 27.0452C202.159 26.132 202.728 25.3457 203.432 24.6862C204.163 24.0014 205.016 23.4687 205.991 23.0883C206.965 22.6824 207.994 22.4795 209.077 22.4795H230.562C231.672 22.4795 232.701 22.6824 233.648 23.0883C234.623 23.4687 235.463 24.0014 236.167 24.6862C236.898 25.3457 237.466 26.132 237.872 27.0452C238.305 27.9583 238.522 28.9349 238.522 29.9748V55.5046ZM209.077 29.9748V55.5046H230.562V29.9748H209.077Z" stroke="url(#paint8_linear_2021_2015)"/>
<path d="M277.999 55.5046V46.1069H259.032C257.922 46.1069 256.88 45.9167 255.905 45.5362C254.93 45.1304 254.077 44.5977 253.346 43.9382C252.642 43.2534 252.074 42.4544 251.64 41.5412C251.234 40.6281 251.031 39.6515 251.031 38.6116V29.9748C251.031 28.9349 251.234 27.9583 251.64 27.0452C252.074 26.132 252.642 25.3457 253.346 24.6862C254.077 24.0014 254.93 23.4687 255.905 23.0883C256.88 22.6824 257.922 22.4795 259.032 22.4795H284.334V29.9748H259.032V38.6116H277.999C279.109 38.6116 280.138 38.8145 281.085 39.2203C282.06 39.6008 282.913 40.1335 283.644 40.8183C284.375 41.4778 284.944 42.2641 285.35 43.1773C285.783 44.0904 286 45.067 286 46.1069V55.5046C286 56.5446 285.783 57.5211 285.35 58.4343C284.944 59.3474 284.375 60.1464 283.644 60.8313C282.913 61.4907 282.06 62.0234 281.085 62.4292C280.138 62.8097 279.109 63 277.999 63H251.031V55.5046H277.999Z" stroke="url(#paint9_linear_2021_2015)"/>
<rect x="216" y="39" width="8" height="8" fill="#A18FD0"/>
<rect x="8" width="8" height="8" fill="#9AFD8E"/>
<rect y="22" width="8" height="8" fill="#9AFD8E"/>
<path d="M16 22.4795H26.5596V10H34.5605V22.4795H48.7753V29.9749H34.5605V55.5047H48.7753V63H34.5605C33.4774 63 32.4486 62.8098 31.4738 62.4293C30.4991 62.0234 29.6462 61.4908 28.9152 60.8313C28.1841 60.1464 27.602 59.3475 27.1688 58.4343C26.7626 57.5212 26.5596 56.5446 26.5596 55.5047V29.9749H16V22.4795Z" fill="#9AFD8E"/>
<defs>
<linearGradient id="paint0_linear_2021_2015" x1="62.1367" y1="42.7397" x2="286" y2="42.7397" gradientUnits="userSpaceOnUse">
<stop stop-color="#9AFF8D"/>
<stop offset="1" stop-color="#A36DE5"/>
</linearGradient>
<linearGradient id="paint1_linear_2021_2015" x1="62.1367" y1="42.7397" x2="286" y2="42.7397" gradientUnits="userSpaceOnUse">
<stop stop-color="#9AFF8D"/>
<stop offset="1" stop-color="#A36DE5"/>
</linearGradient>
<linearGradient id="paint2_linear_2021_2015" x1="62.1367" y1="42.7397" x2="286" y2="42.7397" gradientUnits="userSpaceOnUse">
<stop stop-color="#9AFF8D"/>
<stop offset="1" stop-color="#A36DE5"/>
</linearGradient>
<linearGradient id="paint3_linear_2021_2015" x1="62.1367" y1="42.7397" x2="286" y2="42.7397" gradientUnits="userSpaceOnUse">
<stop stop-color="#9AFF8D"/>
<stop offset="1" stop-color="#A36DE5"/>
</linearGradient>
<linearGradient id="paint4_linear_2021_2015" x1="62.1367" y1="42.7397" x2="286" y2="42.7397" gradientUnits="userSpaceOnUse">
<stop stop-color="#9AFF8D"/>
<stop offset="1" stop-color="#A36DE5"/>
</linearGradient>
<linearGradient id="paint5_linear_2021_2015" x1="62.1367" y1="42.7397" x2="286" y2="42.7397" gradientUnits="userSpaceOnUse">
<stop stop-color="#9AFF8D"/>
<stop offset="1" stop-color="#A36DE5"/>
</linearGradient>
<linearGradient id="paint6_linear_2021_2015" x1="62.1367" y1="42.7397" x2="286" y2="42.7397" gradientUnits="userSpaceOnUse">
<stop stop-color="#9AFF8D"/>
<stop offset="1" stop-color="#A36DE5"/>
</linearGradient>
<linearGradient id="paint7_linear_2021_2015" x1="62.1367" y1="42.7397" x2="286" y2="42.7397" gradientUnits="userSpaceOnUse">
<stop stop-color="#9AFF8D"/>
<stop offset="1" stop-color="#A36DE5"/>
</linearGradient>
<linearGradient id="paint8_linear_2021_2015" x1="62.1367" y1="42.7397" x2="286" y2="42.7397" gradientUnits="userSpaceOnUse">
<stop stop-color="#9AFF8D"/>
<stop offset="1" stop-color="#A36DE5"/>
</linearGradient>
<linearGradient id="paint9_linear_2021_2015" x1="62.1367" y1="42.7397" x2="286" y2="42.7397" gradientUnits="userSpaceOnUse">
<stop stop-color="#9AFF8D"/>
<stop offset="1" stop-color="#A36DE5"/>
</linearGradient>
</defs>
</svg>
