<svg width="385" height="54" viewBox="0 0 385 54" fill="none" xmlns="http://www.w3.org/2000/svg">
<path d="M121.097 19.9748V53H113.137V12.4795H121.097V19.6324C121.151 18.6432 121.395 17.7173 121.828 16.8549C122.261 15.9672 122.83 15.2062 123.534 14.5721C124.265 13.9126 125.104 13.4053 126.052 13.0502C127 12.6697 128.015 12.4795 129.098 12.4795H137.586C138.696 12.4795 139.725 12.6824 140.673 13.0883C141.648 13.4687 142.5 14.0014 143.231 14.6862C143.963 15.3457 144.531 16.132 144.937 17.0452C145.37 17.9583 145.587 18.9349 145.587 19.9748V26.8234H137.586V19.9748H121.097Z" fill="white"/>
<path d="M155.537 35.3079C155.537 34.268 155.741 33.3041 156.147 32.4163C156.58 31.5032 157.148 30.7042 157.852 30.0193C158.583 29.3345 159.436 28.8018 160.411 28.4213C161.386 28.0155 162.415 27.8126 163.498 27.8126H184.13V19.9748H158.015V12.4795H184.13C185.24 12.4795 186.282 12.6824 187.257 13.0883C188.231 13.4687 189.071 14.0014 189.775 14.6862C190.506 15.3457 191.074 16.132 191.481 17.0452C191.914 17.9583 192.13 18.9349 192.13 19.9748V53H184.13V46.1514C184.048 47.0899 183.778 47.9777 183.317 48.8147C182.857 49.6518 182.261 50.3874 181.53 51.0215C180.826 51.6302 180.014 52.1122 179.093 52.4673C178.173 52.8224 177.198 53 176.169 53H163.498C162.415 53 161.386 52.8097 160.411 52.4292C159.436 52.0234 158.583 51.4907 157.852 50.8313C157.148 50.1464 156.58 49.3474 156.147 48.4343C155.741 47.5211 155.537 46.5446 155.537 45.5046V35.3079ZM163.498 45.5046H184.13V35.3079H163.498V45.5046Z" fill="white"/>
<path d="M204.639 12.4795H240.42V14.496L217.392 45.5046H240.42V53H203.827V50.9834L226.855 19.9748H204.639V12.4795Z" fill="white"/>
<path d="M337.522 45.5046C337.522 46.5446 337.305 47.5211 336.872 48.4343C336.466 49.3474 335.898 50.1464 335.167 50.8313C334.463 51.4907 333.623 52.0234 332.648 52.4292C331.701 52.8097 330.672 53 329.562 53H308.077C306.994 53 305.965 52.8097 304.991 52.4292C304.016 52.0234 303.163 51.4907 302.432 50.8313C301.728 50.1464 301.159 49.3474 300.726 48.4343C300.32 47.5211 300.117 46.5446 300.117 45.5046V19.9748C300.117 18.9349 300.32 17.9583 300.726 17.0452C301.159 16.132 301.728 15.3457 302.432 14.6862C303.163 14.0014 304.016 13.4687 304.991 13.0883C305.965 12.6824 306.994 12.4795 308.077 12.4795H329.562C330.672 12.4795 331.701 12.6824 332.648 13.0883C333.623 13.4687 334.463 14.0014 335.167 14.6862C335.898 15.3457 336.466 16.132 336.872 17.0452C337.305 17.9583 337.522 18.9349 337.522 19.9748V45.5046ZM308.077 19.9748V45.5046H329.562V19.9748H308.077Z" fill="white"/>
<path d="M376.999 45.5046V36.1069H358.032C356.922 36.1069 355.879 35.9167 354.905 35.5362C353.93 35.1304 353.077 34.5977 352.346 33.9382C351.642 33.2534 351.074 32.4544 350.64 31.5412C350.234 30.6281 350.031 29.6515 350.031 28.6116V19.9748C350.031 18.9349 350.234 17.9583 350.64 17.0452C351.074 16.132 351.642 15.3457 352.346 14.6862C353.077 14.0014 353.93 13.4687 354.905 13.0883C355.879 12.6824 356.922 12.4795 358.032 12.4795H383.334V19.9748H358.032V28.6116H376.999C378.109 28.6116 379.138 28.8145 380.085 29.2203C381.06 29.6008 381.913 30.1335 382.644 30.8183C383.375 31.4778 383.944 32.2641 384.35 33.1773C384.783 34.0904 385 35.067 385 36.1069V45.5046C385 46.5446 384.783 47.5211 384.35 48.4343C383.944 49.3474 383.375 50.1464 382.644 50.8313C381.913 51.4907 381.06 52.0234 380.085 52.4292C379.138 52.8097 378.109 53 376.999 53H350.031V45.5046H376.999Z" fill="white"/>
<path d="M252.639 12.4795H288.42V14.496L265.392 45.5046H288.42V53H251.827V50.9834L274.855 19.9748H252.639V12.4795Z" fill="white"/>
<path d="M121.097 19.9748V53H113.137V12.4795H121.097V19.6324C121.151 18.6432 121.395 17.7173 121.828 16.8549C122.261 15.9672 122.83 15.2062 123.534 14.5721C124.265 13.9126 125.104 13.4053 126.052 13.0502C127 12.6697 128.015 12.4795 129.098 12.4795H137.586C138.696 12.4795 139.725 12.6824 140.673 13.0883C141.648 13.4687 142.5 14.0014 143.231 14.6862C143.963 15.3457 144.531 16.132 144.937 17.0452C145.37 17.9583 145.587 18.9349 145.587 19.9748V26.8234H137.586V19.9748H121.097Z" stroke="white"/>
<path d="M155.537 35.3079C155.537 34.268 155.741 33.3041 156.147 32.4163C156.58 31.5032 157.148 30.7042 157.852 30.0193C158.583 29.3345 159.436 28.8018 160.411 28.4213C161.386 28.0155 162.415 27.8126 163.498 27.8126H184.13V19.9748H158.015V12.4795H184.13C185.24 12.4795 186.282 12.6824 187.257 13.0883C188.231 13.4687 189.071 14.0014 189.775 14.6862C190.506 15.3457 191.074 16.132 191.481 17.0452C191.914 17.9583 192.13 18.9349 192.13 19.9748V53H184.13V46.1514C184.048 47.0899 183.778 47.9777 183.317 48.8147C182.857 49.6518 182.261 50.3874 181.53 51.0215C180.826 51.6302 180.014 52.1122 179.093 52.4673C178.173 52.8224 177.198 53 176.169 53H163.498C162.415 53 161.386 52.8097 160.411 52.4292C159.436 52.0234 158.583 51.4907 157.852 50.8313C157.148 50.1464 156.58 49.3474 156.147 48.4343C155.741 47.5211 155.537 46.5446 155.537 45.5046V35.3079ZM163.498 45.5046H184.13V35.3079H163.498V45.5046Z" stroke="white"/>
<path d="M204.639 12.4795H240.42V14.496L217.392 45.5046H240.42V53H203.827V50.9834L226.855 19.9748H204.639V12.4795Z" stroke="white"/>
<path d="M337.522 45.5046C337.522 46.5446 337.305 47.5211 336.872 48.4343C336.466 49.3474 335.898 50.1464 335.167 50.8313C334.463 51.4907 333.623 52.0234 332.648 52.4292C331.701 52.8097 330.672 53 329.562 53H308.077C306.994 53 305.965 52.8097 304.991 52.4292C304.016 52.0234 303.163 51.4907 302.432 50.8313C301.728 50.1464 301.159 49.3474 300.726 48.4343C300.32 47.5211 300.117 46.5446 300.117 45.5046V19.9748C300.117 18.9349 300.32 17.9583 300.726 17.0452C301.159 16.132 301.728 15.3457 302.432 14.6862C303.163 14.0014 304.016 13.4687 304.991 13.0883C305.965 12.6824 306.994 12.4795 308.077 12.4795H329.562C330.672 12.4795 331.701 12.6824 332.648 13.0883C333.623 13.4687 334.463 14.0014 335.167 14.6862C335.898 15.3457 336.466 16.132 336.872 17.0452C337.305 17.9583 337.522 18.9349 337.522 19.9748V45.5046ZM308.077 19.9748V45.5046H329.562V19.9748H308.077Z" stroke="white"/>
<path d="M376.999 45.5046V36.1069H358.032C356.922 36.1069 355.879 35.9167 354.905 35.5362C353.93 35.1304 353.077 34.5977 352.346 33.9382C351.642 33.2534 351.074 32.4544 350.64 31.5412C350.234 30.6281 350.031 29.6515 350.031 28.6116V19.9748C350.031 18.9349 350.234 17.9583 350.64 17.0452C351.074 16.132 351.642 15.3457 352.346 14.6862C353.077 14.0014 353.93 13.4687 354.905 13.0883C355.879 12.6824 356.922 12.4795 358.032 12.4795H383.334V19.9748H358.032V28.6116H376.999C378.109 28.6116 379.138 28.8145 380.085 29.2203C381.06 29.6008 381.913 30.1335 382.644 30.8183C383.375 31.4778 383.944 32.2641 384.35 33.1773C384.783 34.0904 385 35.067 385 36.1069V45.5046C385 46.5446 384.783 47.5211 384.35 48.4343C383.944 49.3474 383.375 50.1464 382.644 50.8313C381.913 51.4907 381.06 52.0234 380.085 52.4292C379.138 52.8097 378.109 53 376.999 53H350.031V45.5046H376.999Z" stroke="white"/>
<path d="M252.639 12.4795H288.42V14.496L265.392 45.5046H288.42V53H251.827V50.9834L274.855 19.9748H252.639V12.4795Z" stroke="white"/>
<path d="M315 29H323V37H315V29Z" fill="#9AFF8D"/>
<path d="M85.5605 12.4795H99.7754V19.9746H85.5605V45.5049H99.7754V53H85.5605C84.4775 53 83.4484 52.8102 82.4736 52.4297C81.4989 52.0238 80.6461 51.4905 79.915 50.8311C79.1842 50.1463 78.6021 49.3475 78.1689 48.4346C77.7628 47.5215 77.5596 46.5448 77.5596 45.5049V19.9746H67V12.4795H77.5596V0H85.5605V12.4795Z" fill="white"/>
<path d="M85.5605 12.4795H99.7754V19.9746H85.5605V45.5049H99.7754V53H85.5605C84.4775 53 83.4484 52.8102 82.4736 52.4297C81.4989 52.0238 80.6461 51.4905 79.915 50.8311C79.1842 50.1463 78.6021 49.3475 78.1689 48.4346C77.7628 47.5215 77.5596 46.5448 77.5596 45.5049V19.9746H67V12.4795H77.5596V0H85.5605V12.4795Z" stroke="white"/>
<rect x="20.7998" y="11.9996" width="10.4" height="31.2" fill="#70B168"/>
<path d="M31.2002 11.9996L31.2002 22.3996L10.4002 22.3996L10.4002 11.9996L20.8002 11.9996L20.8002 2L31.2002 2L31.2002 11.9996Z" fill="#9AFF8D"/>
<rect x="41.5996" y="11.9996" width="10.4" height="10.4" fill="#9AFF8D"/>
<rect y="22.3997" width="10.4" height="10.4" fill="#70B168"/>
<rect x="31.2002" y="43.1997" width="10.4" height="10.4" fill="#9AFF8D"/>
</svg>
